#Comment line ignore any data following # character 
#Hierarchical Translation and Rotation (.htr) file 
[Header]	
#Header keywords are followed by a single value 
FileType HTR		#Single word string
DataType HTRS		#Translation followed by rotation and scale data
FileVersion 1		#integer
NumSegments 84		#integer
NumFrames 2		#integer
DataFrameRate 30		#integer, data frame rate in this file
EulerRotationOrder ZYX
CalibrationUnits mm
RotationUnits Degrees
GlobalAxisofGravity Y
BoneLengthAxis Y
ScaleFactor 1.00
[SegmentNames&Hierarchy]
#CHILD	PARENT
MASTER GLOBAL
root MASTER
chest root
L_mid_tent01 root
R_mid_tent01 root
spine01 root
Bip01_Neck chest
L_humerus chest
R_humerus chest
weapon_bone chest
Bip01_Head Bip01_Neck
eye_left_bone Bip01_Head
eye_right_bone Bip01_Head
L_forearm L_humerus
L_front_hand L_forearm
L_weapon_bone L_forearm
L_front_hand01_01 L_front_hand
L_front_hand02_01 L_front_hand
L_front_hand03_01 L_front_hand
L_front_hand01_02 L_front_hand01_01
L_front_hand02_02 L_front_hand02_01
L_front_hand03_02 L_front_hand03_01
R_forearm R_humerus
R_front_hand R_forearm
R_weapon_bone R_forearm
R_front_hand01_01 R_front_hand
R_front_hand02_01 R_front_hand
R_front_hand03_01 R_front_hand
R_front_hand01_02 R_front_hand01_01
R_front_hand02_02 R_front_hand02_01
R_front_hand03_02 R_front_hand03_01
null_rope01_connect L_mid_tent01
Rope1_Seg01 null_rope01_connect
Rope1_Seg02 Rope1_Seg01
Rope1_Seg03 Rope1_Seg02
Rope1_Seg04 Rope1_Seg03
Rope1_Seg05 Rope1_Seg04
Rope1_Seg06 Rope1_Seg05
Rope1_Seg07 Rope1_Seg06
Rope1_Seg09 Rope1_Seg07
L_mid_hand01 Rope1_Seg09
L_mid_hand02 Rope1_Seg09
L_mid_hand03 Rope1_Seg09
null_rope02_connect R_mid_tent01
Rope2_Seg01 null_rope02_connect
Rope2_Seg02 Rope2_Seg01
Rope2_Seg03 Rope2_Seg02
Rope2_Seg04 Rope2_Seg03
Rope2_Seg05 Rope2_Seg04
Rope2_Seg06 Rope2_Seg05
Rope2_Seg07 Rope2_Seg06
Rope2_Seg09 Rope2_Seg07
R_mid_hand01 Rope2_Seg09
R_mid_hand02 Rope2_Seg09
R_mid_hand03 Rope2_Seg09
spine02 spine01
spine03 spine02
pelvis spine03
null_rope03_connect pelvis
null_rope04_connect pelvis
Rope3_Seg01 null_rope03_connect
Rope3_Seg02 Rope3_Seg01
Rope3_Seg03 Rope3_Seg02
Rope3_Seg04 Rope3_Seg03
Rope3_Seg05 Rope3_Seg04
Rope3_Seg06 Rope3_Seg05
Rope3_Seg07 Rope3_Seg06
Rope3_Seg08 Rope3_Seg07
Rope3_Seg09 Rope3_Seg08
R_rear_hand01 Rope3_Seg09
R_rear_hand02 Rope3_Seg09
R_rear_hand03 Rope3_Seg09
Rope4_Seg01 null_rope04_connect
Rope4_Seg02 Rope4_Seg01
Rope4_Seg03 Rope4_Seg02
Rope4_Seg04 Rope4_Seg03
Rope4_Seg05 Rope4_Seg04
Rope4_Seg06 Rope4_Seg05
Rope4_Seg07 Rope4_Seg06
Rope4_Seg08 Rope4_Seg07
Rope4_Seg09 Rope4_Seg08
L_rear_hand01 Rope4_Seg09
L_rear_hand02 Rope4_Seg09
L_rear_hand03 Rope4_Seg09
[BasePosition]
#SegmentName Tx, Ty, Tz, Rx, Ry, Rz, BoneLength
MASTER 0.000000 0.000000 0.000000 -90.000000 0.000000 0.000000 10.000000 
root 0.000000 0.000000 0.000000 0.000000 0.000000 0.000000 10.000000 
chest 0.000000 0.000000 0.000000 0.000000 0.000000 0.000000 10.000000 
L_mid_tent01 0.000000 0.000000 0.000000 0.000000 0.000000 0.000000 10.000000 
R_mid_tent01 0.000000 0.000000 0.000000 0.000000 0.000000 0.000000 10.000000 
spine01 0.000000 0.000000 0.000000 0.000000 0.000000 0.000000 10.000000 
Bip01_Neck 0.000000 0.000000 0.000000 0.000000 0.000000 0.000000 10.000000 
L_humerus 0.000000 0.000000 0.000000 0.000000 0.000000 0.000000 10.000000 
R_humerus 0.000000 0.000000 0.000000 0.000000 0.000000 0.000000 10.000000 
weapon_bone 0.000000 0.000000 0.000000 0.000000 0.000000 0.000000 10.000000 
Bip01_Head 0.000000 0.000000 0.000000 0.000000 0.000000 0.000000 10.000000 
eye_left_bone 0.000000 0.000000 0.000000 0.000000 0.000000 0.000000 10.000000 
eye_right_bone 0.000000 0.000000 0.000000 0.000000 0.000000 0.000000 10.000000 
L_forearm 0.000000 0.000000 0.000000 0.000000 0.000000 0.000000 10.000000 
L_front_hand 0.000000 0.000000 0.000000 0.000000 0.000000 0.000000 10.000000 
L_weapon_bone 0.000000 0.000000 0.000000 0.000000 0.000000 0.000000 10.000000 
L_front_hand01_01 0.000000 0.000000 0.000000 0.000000 0.000000 0.000000 10.000000 
L_front_hand02_01 0.000000 0.000000 0.000000 0.000000 0.000000 0.000000 10.000000 
L_front_hand03_01 0.000000 0.000000 0.000000 0.000000 0.000000 0.000000 10.000000 
L_front_hand01_02 0.000000 0.000000 0.000000 0.000000 0.000000 0.000000 10.000000 
L_front_hand02_02 0.000000 0.000000 0.000000 0.000000 0.000000 0.000000 10.000000 
L_front_hand03_02 0.000000 0.000000 0.000000 0.000000 0.000000 0.000000 10.000000 
R_forearm 0.000000 0.000000 0.000000 0.000000 0.000000 0.000000 10.000000 
R_front_hand 0.000000 0.000000 0.000000 0.000000 0.000000 0.000000 10.000000 
R_weapon_bone 0.000000 0.000000 0.000000 0.000000 0.000000 0.000000 10.000000 
R_front_hand01_01 0.000000 0.000000 0.000000 0.000000 0.000000 0.000000 10.000000 
R_front_hand02_01 0.000000 0.000000 0.000000 0.000000 0.000000 0.000000 10.000000 
R_front_hand03_01 0.000000 0.000000 0.000000 0.000000 0.000000 0.000000 10.000000 
R_front_hand01_02 0.000000 0.000000 0.000000 0.000000 0.000000 0.000000 10.000000 
R_front_hand02_02 0.000000 0.000000 0.000000 0.000000 0.000000 0.000000 10.000000 
R_front_hand03_02 0.000000 0.000000 0.000000 0.000000 0.000000 0.000000 10.000000 
null_rope01_connect 0.000000 0.000000 0.000000 0.000000 0.000000 0.000000 10.000000 
Rope1_Seg01 0.000000 0.000000 0.000000 0.000000 0.000000 0.000000 10.000000 
Rope1_Seg02 0.000000 0.000000 0.000000 0.000000 0.000000 0.000000 10.000000 
Rope1_Seg03 0.000000 0.000000 0.000000 0.000000 0.000000 0.000000 10.000000 
Rope1_Seg04 0.000000 0.000000 0.000000 0.000000 0.000000 0.000000 10.000000 
Rope1_Seg05 0.000000 0.000000 0.000000 0.000000 0.000000 0.000000 10.000000 
Rope1_Seg06 0.000000 0.000000 0.000000 0.000000 0.000000 0.000000 10.000000 
Rope1_Seg07 0.000000 0.000000 0.000000 0.000000 0.000000 0.000000 10.000000 
Rope1_Seg09 0.000000 0.000000 0.000000 0.000000 0.000000 0.000000 10.000000 
L_mid_hand01 0.000000 0.000000 0.000000 0.000000 0.000000 0.000000 10.000000 
L_mid_hand02 0.000000 0.000000 0.000000 0.000000 0.000000 0.000000 10.000000 
L_mid_hand03 0.000000 0.000000 0.000000 0.000000 0.000000 0.000000 10.000000 
null_rope02_connect 0.000000 0.000000 0.000000 0.000000 0.000000 0.000000 10.000000 
Rope2_Seg01 0.000000 0.000000 0.000000 0.000000 0.000000 0.000000 10.000000 
Rope2_Seg02 0.000000 0.000000 0.000000 0.000000 0.000000 0.000000 10.000000 
Rope2_Seg03 0.000000 0.000000 0.000000 0.000000 0.000000 0.000000 10.000000 
Rope2_Seg04 0.000000 0.000000 0.000000 0.000000 0.000000 0.000000 10.000000 
Rope2_Seg05 0.000000 0.000000 0.000000 0.000000 0.000000 0.000000 10.000000 
Rope2_Seg06 0.000000 0.000000 0.000000 0.000000 0.000000 0.000000 10.000000 
Rope2_Seg07 0.000000 0.000000 0.000000 0.000000 0.000000 0.000000 10.000000 
Rope2_Seg09 0.000000 0.000000 0.000000 0.000000 0.000000 0.000000 10.000000 
R_mid_hand01 0.000000 0.000000 0.000000 0.000000 0.000000 0.000000 10.000000 
R_mid_hand02 0.000000 0.000000 0.000000 0.000000 0.000000 0.000000 10.000000 
R_mid_hand03 0.000000 0.000000 0.000000 0.000000 0.000000 0.000000 10.000000 
spine02 0.000000 0.000000 0.000000 0.000000 0.000000 0.000000 10.000000 
spine03 0.000000 0.000000 0.000000 0.000000 0.000000 0.000000 10.000000 
pelvis 0.000000 0.000000 0.000000 0.000000 0.000000 0.000000 10.000000 
null_rope03_connect 0.000000 0.000000 0.000000 0.000000 0.000000 0.000000 10.000000 
null_rope04_connect 0.000000 0.000000 0.000000 0.000000 0.000000 0.000000 10.000000 
Rope3_Seg01 0.000000 0.000000 0.000000 0.000000 0.000000 0.000000 10.000000 
Rope3_Seg02 0.000000 0.000000 0.000000 0.000000 0.000000 0.000000 10.000000 
Rope3_Seg03 0.000000 0.000000 0.000000 0.000000 0.000000 0.000000 10.000000 
Rope3_Seg04 0.000000 0.000000 0.000000 0.000000 0.000000 0.000000 10.000000 
Rope3_Seg05 0.000000 0.000000 0.000000 0.000000 0.000000 0.000000 10.000000 
Rope3_Seg06 0.000000 0.000000 0.000000 0.000000 0.000000 0.000000 10.000000 
Rope3_Seg07 0.000000 0.000000 0.000000 0.000000 0.000000 0.000000 10.000000 
Rope3_Seg08 0.000000 0.000000 0.000000 0.000000 0.000000 0.000000 10.000000 
Rope3_Seg09 0.000000 0.000000 0.000000 0.000000 0.000000 0.000000 10.000000 
R_rear_hand01 0.000000 0.000000 0.000000 0.000000 0.000000 0.000000 10.000000 
R_rear_hand02 0.000000 0.000000 0.000000 0.000000 0.000000 0.000000 10.000000 
R_rear_hand03 0.000000 0.000000 0.000000 0.000000 0.000000 0.000000 10.000000 
Rope4_Seg01 0.000000 0.000000 0.000000 0.000000 0.000000 0.000000 10.000000 
Rope4_Seg02 0.000000 0.000000 0.000000 0.000000 0.000000 0.000000 10.000000 
Rope4_Seg03 0.000000 0.000000 0.000000 0.000000 0.000000 0.000000 10.000000 
Rope4_Seg04 0.000000 0.000000 0.000000 0.000000 0.000000 0.000000 10.000000 
Rope4_Seg05 0.000000 0.000000 0.000000 0.000000 0.000000 0.000000 10.000000 
Rope4_Seg06 0.000000 0.000000 0.000000 0.000000 0.000000 0.000000 10.000000 
Rope4_Seg07 0.000000 0.000000 0.000000 0.000000 0.000000 0.000000 10.000000 
Rope4_Seg08 0.000000 0.000000 0.000000 0.000000 0.000000 0.000000 10.000000 
Rope4_Seg09 0.000000 0.000000 0.000000 0.000000 0.000000 0.000000 10.000000 
L_rear_hand01 0.000000 0.000000 0.000000 0.000000 0.000000 0.000000 10.000000 
L_rear_hand02 0.000000 0.000000 0.000000 0.000000 0.000000 0.000000 10.000000 
L_rear_hand03 0.000000 0.000000 0.000000 0.000000 0.000000 0.000000 10.000000 
#Beginning of Data. Separated by tabs
#Fr	Tx	Ty	Tz	Rx	Ry	Rz	SF
[MASTER]
31 0.000000 0.000000 0.000000 0.001660 0.001660 0.001660 0.000000
32 0.000000 0.000000 0.000000 0.001660 0.001660 0.001660 0.000000
[root]
31 -62.820232 -62.822140 982.269165 -89.318810 -4.092883 -88.550003 986.278687
32 -48.241062 -62.822132 985.208801 -89.242920 -3.995533 -88.232010 988.387695
[chest]
31 -84.512650 -34.090519 0.000000 -0.307809 -0.743092 156.385437 91.129311
32 -84.512650 -34.090519 0.000000 -0.307809 -0.743092 156.385437 91.129311
[L_mid_tent01]
31 23.228750 24.509907 -223.761200 -14.455496 3.224630 -14.542144 226.294907
32 23.228750 24.509907 -223.761200 -14.141158 5.967419 -16.377167 226.294907
[R_mid_tent01]
31 23.228794 24.509907 226.238495 -162.915573 -16.550661 -4.300098 228.744751
32 23.228794 24.509907 226.238495 -161.350143 -9.791407 -2.188326 228.744751
[spine01]
31 -0.361383 -0.195265 0.000000 0.001815 0.001488 11.320962 0.410763
32 -0.361383 -0.195265 0.000000 0.001815 0.001488 11.320962 0.410763
[Bip01_Neck]
31 165.484543 71.581718 0.000119 175.896118 1.177290 24.871183 180.302734
32 165.484543 71.581718 0.000119 175.896118 1.177290 24.871183 180.302734
[L_humerus]
31 -13.983130 -135.272980 -120.471481 -104.702057 -2.574140 -132.238052 181.680161
32 -13.983130 -135.272980 -120.471481 -104.702057 -2.574140 -132.238052 181.680161
[R_humerus]
31 -13.983309 -135.273102 125.287651 84.935959 -3.633308 -127.041824 184.909012
32 -13.983309 -135.273102 125.287651 84.935959 -3.633308 -127.041824 184.909012
[weapon_bone]
31 235.964890 -300.705902 0.000000 0.000000 -89.951546 -128.212341 382.234833
32 235.964890 -300.705902 0.000000 0.000000 -89.951546 -128.212341 382.234833
[Bip01_Head]
31 201.313828 211.516800 15.929730 -0.309525 5.807149 -64.824738 292.438660
32 201.313828 211.516800 15.929730 -0.779947 6.088634 -64.796677 292.438660
[eye_left_bone]
31 -24.626970 125.451866 -64.772606 0.000000 -90.000000 -99.840431 143.318359
32 -24.626970 125.451866 -64.772606 0.000000 -90.000000 -99.840431 143.318359
[eye_right_bone]
31 -24.626970 125.451866 64.327362 0.000000 -89.965736 80.156380 143.117676
32 -24.626970 125.451866 64.327362 0.000000 -89.965736 80.156380 143.117676
[L_forearm]
31 322.776093 0.000000 -0.000119 0.000357 -0.002320 -107.506004 322.776093
32 322.776093 0.000000 -0.000119 0.000357 -0.002320 -107.506004 322.776093
[L_front_hand]
31 241.149185 -0.042021 -3.300071 -177.752777 -0.319468 -73.408745 241.171753
32 241.149185 -0.042021 -3.300071 -177.752777 -0.319468 -73.408745 241.171753
[L_weapon_bone]
31 156.183838 0.000000 0.000000 0.000014 0.000007 0.000001 156.183838
32 156.183838 0.000000 0.000000 0.000014 0.000007 0.000001 156.183838
[L_front_hand01_01]
31 86.095154 20.947098 -0.655860 0.139491 -0.584553 24.181786 88.609184
32 86.095154 20.947098 -0.655860 0.139491 -0.584553 24.181791 88.609184
[L_front_hand02_01]
31 86.935165 -11.437475 24.513514 119.190460 -21.905655 -12.119137 91.046425
32 86.935165 -11.437475 24.513514 119.190460 -21.905655 -12.119137 91.046425
[L_front_hand03_01]
31 86.637497 -14.123976 -20.424902 -120.437630 20.554031 -14.327168 90.126129
32 86.637497 -14.123976 -20.424902 -120.437630 20.554031 -14.327168 90.126129
[L_front_hand01_02]
31 71.020905 -0.000179 0.000030 0.000334 -0.002323 -106.379684 71.020905
32 71.020905 -0.000179 0.000030 0.000334 -0.002323 -106.379684 71.020905
[L_front_hand02_02]
31 71.020927 -0.000119 0.000060 0.000334 -0.002323 -106.379684 71.020927
32 71.020927 -0.000119 0.000060 0.000334 -0.002323 -106.379684 71.020927
[L_front_hand03_02]
31 71.020905 -0.000060 0.000060 0.000334 -0.002323 -106.379684 71.020905
32 71.020905 -0.000060 0.000060 0.000334 -0.002323 -106.379684 71.020905
[R_forearm]
31 322.776428 -0.000060 0.000030 0.213176 0.008105 -93.737396 322.776428
32 322.776428 -0.000060 0.000030 0.213176 0.008105 -93.737396 322.776428
[R_front_hand]
31 238.847015 -0.006795 2.210259 -1.721140 -0.139412 -83.351707 238.857239
32 238.847015 -0.006795 2.210259 -1.721140 -0.139412 -83.351707 238.857239
[R_weapon_bone]
31 155.664093 0.002503 -0.000030 0.003487 0.001180 -90.988930 155.664078
32 155.664093 0.002503 -0.000030 0.003487 0.001180 -90.988930 155.664078
[R_front_hand01_01]
31 87.624611 14.231146 22.918642 -119.218056 -22.033409 12.303375 91.683487
32 87.624611 14.231146 22.918642 -119.218056 -22.033409 12.303375 91.683487
[R_front_hand02_01]
31 89.356956 14.367283 -19.491137 120.545532 20.947184 14.823009 92.579636
32 89.356956 14.367283 -19.491137 120.545532 20.947184 14.823009 92.579636
[R_front_hand03_01]
31 87.286232 -22.307278 -0.143439 -0.231628 -0.392922 -24.567768 90.091743
32 87.286232 -22.307278 -0.143439 -0.231628 -0.392922 -24.567768 90.091743
[R_front_hand01_02]
31 71.020905 0.000060 0.000119 0.002323 -0.000334 106.381714 71.020905
32 71.020905 0.000060 0.000119 0.002323 -0.000334 106.381714 71.020905
[R_front_hand02_02]
31 71.020844 -0.000030 -0.000119 0.002323 -0.000334 106.381714 71.020836
32 71.020844 -0.000030 -0.000119 0.002323 -0.000334 106.381714 71.020836
[R_front_hand03_02]
31 71.020905 0.000000 0.000030 0.002323 -0.000334 106.381714 71.020905
32 71.020905 0.000000 0.000030 0.002323 -0.000334 106.381714 71.020905
[null_rope01_connect]
31 328.732483 0.000000 -0.000238 -152.924362 -76.517387 -98.736458 328.732483
32 328.732483 0.000000 -0.000238 -140.627167 -76.438148 -109.639114 328.732483
[Rope1_Seg01]
31 0.000000 0.000000 0.000000 67.543129 -29.302044 -137.657394 0.000000
32 0.000000 0.000000 0.000000 75.517311 -26.955999 -144.955246 0.000000
[Rope1_Seg02]
31 139.999863 -0.000179 0.000000 -11.715674 16.465473 8.394758 139.999863
32 139.999863 -0.000179 0.000000 -12.819679 18.386791 10.510254 139.999863
[Rope1_Seg03]
31 139.999924 0.000060 -0.000060 -14.388900 18.309046 20.493153 139.999924
32 139.999924 0.000060 -0.000060 -13.888208 20.940828 28.429886 139.999924
[Rope1_Seg04]
31 139.999924 -0.000060 -0.000119 -4.213973 6.023912 4.876320 139.999924
32 139.999924 -0.000060 -0.000119 -4.881817 8.115070 19.435041 139.999924
[Rope1_Seg05]
31 139.999832 0.000119 -0.000060 11.421146 -0.937856 -19.666670 139.999832
32 139.999832 0.000119 -0.000060 3.700259 7.886717 -24.674734 139.999832
[Rope1_Seg06]
31 139.999954 0.000119 -0.000060 6.559389 -1.787862 -7.398763 139.999954
32 139.999954 0.000119 -0.000060 13.007470 3.199453 -20.807734 139.999954
[Rope1_Seg07]
31 139.999985 0.000060 0.000000 2.732528 -0.803005 -2.778338 139.999985
32 139.999985 0.000060 0.000000 6.045360 0.117188 -6.032176 139.999985
[Rope1_Seg09]
31 121.602913 0.000119 -0.000089 -89.793175 -1.359789 0.847147 121.602913
32 121.602913 0.000119 -0.000089 -89.793175 -1.359789 0.847147 121.602913
[L_mid_hand01]
31 103.859421 1.038730 8.195221 106.855484 -31.239275 -9.461397 104.187431
32 103.859421 1.038730 8.195221 106.855484 -31.239275 -9.461397 104.187431
[L_mid_hand02]
31 105.572853 -4.139662 -10.864139 -142.331345 25.752670 -28.774628 106.211075
32 105.572853 -4.139662 -10.864139 -142.331345 25.752670 -28.774628 106.211075
[L_mid_hand03]
31 104.641464 17.579376 -3.913581 -16.122810 9.734291 34.223598 106.179977
32 104.641464 17.579376 -3.913581 -16.122810 9.734291 34.223598 106.179977
[null_rope02_connect]
31 328.732849 0.000179 -0.000119 -127.933365 64.787773 -43.727226 328.732849
32 328.732849 0.000179 -0.000119 -144.370956 67.370163 -58.725067 328.732849
[Rope2_Seg01]
31 0.000134 0.000114 -0.000076 99.574425 12.095111 -99.505737 0.000192
32 0.000133 0.000114 -0.000079 98.740150 11.110765 -105.330879 0.000192
[Rope2_Seg02]
31 139.999741 -0.000060 -0.000119 -11.130937 11.955826 11.840059 139.999756
32 139.999741 -0.000060 -0.000119 -11.819479 19.098948 12.010435 139.999756
[Rope2_Seg03]
31 140.000107 0.000030 0.000000 -14.669944 14.401218 11.592196 140.000107
32 140.000107 0.000030 0.000000 -18.124414 18.439676 12.348027 140.000107
[Rope2_Seg04]
31 139.999802 0.000000 -0.000060 -0.238083 -3.383385 1.750397 139.999802
32 139.999802 0.000000 -0.000060 -0.189613 -2.711652 1.391373 139.999802
[Rope2_Seg05]
31 139.999985 -0.000060 0.000119 13.238227 -19.512529 -11.162741 139.999985
32 139.999985 -0.000060 0.000119 16.414738 -19.528297 -13.140274 139.999985
[Rope2_Seg06]
31 139.999893 -0.000030 -0.000119 4.427918 -15.242518 -4.891451 139.999893
32 139.999893 -0.000030 -0.000119 6.121841 -17.671923 -6.175230 139.999893
[Rope2_Seg07]
31 139.999893 0.000060 -0.000060 0.868183 -7.129591 -1.420151 139.999893
32 139.999893 0.000060 -0.000060 1.136821 -8.165293 -1.661294 139.999893
[Rope2_Seg09]
31 121.338966 0.000089 -0.000060 33.793236 -1.359788 -0.847141 121.338966
32 121.338966 0.000089 -0.000060 33.793236 -1.359788 -0.847141 121.338966
[R_mid_hand01]
31 104.680779 11.144459 -10.335981 -41.523792 25.424656 28.595957 105.778534
32 104.680779 11.144459 -10.335981 -41.523792 25.424656 28.595957 105.778534
[R_mid_hand02]
31 104.070427 2.443552 8.231699 72.847389 -32.746803 10.013901 104.424065
32 104.070427 2.443552 8.231699 72.847389 -32.746803 10.013901 104.424065
[R_mid_hand03]
31 106.028137 -11.221827 -5.996406 -167.901306 10.259192 -37.009720 106.788818
32 106.028137 -11.221827 -5.996406 -167.901306 10.259192 -37.009720 106.788818
[spine02]
31 129.756927 0.001550 0.000119 0.001147 -1.797837 -7.854275 129.756927
32 129.756927 0.001550 0.000119 0.001147 -1.797837 -7.854274 129.756927
[spine03]
31 79.115631 0.000000 -0.000119 1.459971 -2.848092 23.765963 79.115631
32 79.115631 0.000000 -0.000119 1.459971 -2.848092 23.765965 79.115631
[pelvis]
31 169.435242 0.051022 0.000000 -0.000005 0.000003 -4.322055 169.435257
32 169.435242 0.051022 0.000000 -0.000005 0.000003 -4.322055 169.435257
[null_rope03_connect]
31 -1.257226 -2.466202 137.391083 59.820396 -83.710953 11.266516 137.418976
32 -1.257226 -2.466202 137.391083 60.664452 -83.393608 10.323404 137.418976
[null_rope04_connect]
31 -1.259640 -2.480268 -137.844437 59.820396 -83.710953 11.266516 137.872513
32 -1.259640 -2.480268 -137.844437 60.664452 -83.393608 10.323404 137.872513
[Rope3_Seg01]
31 0.000010 0.000019 -0.000076 -128.690399 2.372239 -56.438366 0.000079
32 0.000010 0.000018 -0.000074 -129.008331 -0.106346 -52.049103 0.000077
[Rope3_Seg02]
31 139.999924 -0.000119 0.000060 -0.481216 5.448109 3.801895 139.999924
32 139.999924 -0.000119 0.000060 -0.510537 4.581460 3.659486 139.999924
[Rope3_Seg03]
31 139.999924 -0.000119 0.000119 -0.127277 7.389603 5.298251 139.999924
32 139.999924 -0.000119 0.000119 -0.309988 6.346050 5.197142 139.999924
[Rope3_Seg04]
31 139.999924 0.000119 0.000000 0.773136 10.438392 7.671472 139.999924
32 139.999924 0.000119 0.000000 0.253758 8.980231 7.567641 139.999924
[Rope3_Seg05]
31 139.999924 -0.000238 0.000060 4.916367 17.838377 13.461732 139.999924
32 139.999924 -0.000238 0.000060 3.220715 15.863268 14.256177 139.999924
[Rope3_Seg06]
31 139.999893 -0.000119 -0.000060 3.616107 8.659267 5.686488 139.999893
32 139.999893 -0.000119 -0.000060 4.044344 11.807330 9.589047 139.999893
[Rope3_Seg07]
31 139.999771 0.000060 -0.000119 -0.993021 -4.748205 -2.759184 139.999771
32 139.999771 0.000060 -0.000119 1.171727 0.983596 -0.250406 139.999771
[Rope3_Seg08]
31 139.999985 -0.000060 0.000000 -0.690575 -5.134602 -3.116430 139.999985
32 139.999985 -0.000060 0.000000 0.548587 -1.177199 -1.715339 139.999985
[Rope3_Seg09]
31 90.185997 -0.000179 -0.000060 89.793228 -1.359877 -0.847183 90.185997
32 90.185997 -0.000179 -0.000060 89.793228 -1.359877 -0.847183 90.185997
[R_rear_hand01]
31 103.366196 -6.073594 -10.757982 -161.551193 16.666374 -30.088671 104.101845
32 103.366196 -6.073594 -10.757982 -161.551193 16.666374 -30.088671 104.101845
[R_rear_hand02]
31 100.509819 12.039542 -7.992327 -34.280552 19.289745 28.875523 101.543350
32 100.509819 12.039542 -7.992327 -34.280552 19.289745 28.875523 101.543350
[R_rear_hand03]
31 101.539970 5.215704 5.435467 83.366440 -30.933914 7.284830 101.819031
32 101.539970 5.215704 5.435467 83.366440 -30.933914 7.284830 101.819031
[Rope4_Seg01]
31 0.000010 0.000038 -0.000114 37.855598 7.429976 -33.319241 0.000121
32 0.000010 0.000038 -0.000114 28.158699 3.388772 -32.071873 0.000121
[Rope4_Seg02]
31 139.999985 0.000060 0.000119 17.919329 -14.261341 -23.030266 139.999985
32 139.999985 0.000060 0.000119 20.806618 -8.712600 -22.347589 139.999985
[Rope4_Seg03]
31 139.999924 0.000000 -0.000238 7.115751 -20.350895 -19.435480 139.999924
32 139.999924 0.000000 -0.000238 8.911234 -17.018326 -20.538172 139.999924
[Rope4_Seg04]
31 139.999985 0.000000 0.000119 2.361077 -16.763227 -13.324286 139.999985
32 139.999985 0.000000 0.000119 3.058509 -15.605148 -14.520152 139.999985
[Rope4_Seg05]
31 139.999802 -0.000060 -0.000119 0.065208 -5.253639 -4.190730 139.999802
32 139.999802 -0.000060 -0.000119 0.235219 -6.040474 -5.549878 139.999802
[Rope4_Seg06]
31 139.999924 0.000000 0.000060 -0.005308 -0.413843 -0.809441 139.999924
32 139.999924 0.000000 0.000060 -0.044189 -1.715756 -2.223638 139.999924
[Rope4_Seg07]
31 139.999802 0.000000 0.000000 0.177487 3.694403 1.769010 139.999802
32 139.999802 0.000000 0.000000 -0.038043 0.921324 -0.631752 139.999802
[Rope4_Seg08]
31 139.999924 0.000000 0.000119 -1.412839 3.723326 1.702659 139.999924
32 139.999924 0.000000 0.000119 -1.629571 0.498074 -0.915566 139.999924
[Rope4_Seg09]
31 90.185791 0.000060 0.000060 -135.617828 2.228885 0.850567 90.185791
32 90.185791 0.000060 0.000060 -135.617828 2.228885 0.850567 90.185791
[L_rear_hand01]
31 101.696655 -8.392275 -7.654577 -34.454281 -18.946800 151.655121 102.329041
32 101.696655 -8.392275 -7.654577 -34.454281 -18.946800 151.655121 102.329041
[L_rear_hand02]
31 102.726799 -1.568258 5.773216 83.407906 30.330435 172.796509 102.900848
32 102.726799 -1.568258 5.773216 83.407906 30.330435 172.796509 102.900848
[L_rear_hand03]
31 104.552910 9.721220 -10.420293 -161.379868 -16.473232 -150.512238 105.519653
32 104.552910 9.721220 -10.420293 -161.379868 -16.473232 -150.512238 105.519653
